# xmcd
#
# Track frame offsets:
#	150
#	20855
#	41357
#	61772
#	83767
#	114800
#	132082
#	156227
#	177675
#	202747
#
# Disc length: 2993 seconds
#
# Revision: 2
# Processed by: cddbd v1.5.2PL0 Copyright (c) Steve Scherf et al.
# Submitted via: EZCDAudioConverter 8.0.2.1
#
DISCID=790baf0a
DTITLE=Ý Lan - st. Phạm Duy. Khi Tôi Về
DYEAR=1996
DGENRE=
TTITLE0=Tình cầm
TTITLE1=Nghìn thu
TTITLE2=Còn một chút gì để nhớ
TTITLE3=Đừng xa nhau
TTITLE4=Áo anh sứt chỉ đường tà
TTITLE5=Mùa xuân yêu em
TTITLE6=Ngày đó chúng mình
TTITLE7=Lá diêu bông
TTITLE8=Kỷ vật cho em
TTITLE9=Khi tôi về
EXTD=
EXTT0=
EXTT1=
EXTT2=
EXTT3=
EXTT4=
EXTT5=
EXTT6=
EXTT7=
EXTT8=
EXTT9=
PLAYORDER=
